<?xml version="1.0" standalone="no"?>
<!DOCTYPE svg PUBLIC "-//W3C//DTD SVG 20010904//EN"
 "http://www.w3.org/TR/2001/REC-SVG-20010904/DTD/svg10.dtd">
<svg version="1.0" xmlns="http://www.w3.org/2000/svg"
 width="512.000000pt" height="512.000000pt" viewBox="0 0 512.000000 512.000000"
 preserveAspectRatio="xMidYMid meet">
<metadata>
Created by potrace 1.16, written by Peter Selinger 2001-2019
</metadata>
<g transform="translate(0.000000,512.000000) scale(0.100000,-0.100000)"
fill="#f472b6" stroke="none">
<path d="M2344 3963 c-35 -7 -84 -55 -98 -96 -15 -45 -7 -116 20 -174 36 -77
208 -213 269 -213 33 0 140 66 191 118 63 63 96 128 102 198 12 143 -121 214
-245 131 l-50 -33 -34 24 c-54 37 -111 54 -155 45z"/>
<path d="M1660 3689 c-151 -25 -311 -150 -382 -298 -27 -55 -33 -81 -36 -157
-9 -191 64 -330 338 -643 139 -159 200 -249 228 -336 33 -98 38 -166 18 -219
-19 -49 -30 -57 -63 -45 -32 12 -51 57 -78 184 -36 173 -114 300 -247 400
-127 96 -246 136 -408 137 -159 0 -243 -25 -533 -156 -92 -42 -191 -81 -219
-87 -49 -11 -169 -7 -246 7 l-32 6 0 -160 c0 -183 15 -289 61 -418 112 -317
375 -560 734 -678 222 -74 655 -92 914 -40 315 63 545 222 665 461 92 184 89
427 -9 628 -77 158 -142 228 -504 540 -177 152 -265 285 -266 400 0 70 24 113
79 139 65 31 150 12 175 -38 5 -12 12 -66 14 -121 2 -59 11 -115 20 -137 15
-36 176 -200 254 -259 41 -31 78 -37 86 -14 6 13 -28 89 -63 142 -13 21 -12
25 24 60 58 57 80 113 80 203 0 87 -27 161 -92 257 -84 124 -229 222 -357 243
-68 11 -79 11 -155 -1z"/>
<path d="M3296 3689 c-119 -19 -267 -123 -348 -242 -65 -96 -92 -170 -92 -257
0 -90 22 -146 80 -203 36 -35 37 -39 24 -60 -35 -53 -69 -129 -63 -142 8 -23
45 -17 86 14 78 59 239 223 254 259 10 23 18 79 21 145 5 107 5 107 39 137 39
35 94 40 149 14 136 -65 97 -260 -88 -446 -35 -35 -126 -117 -203 -183 -242
-206 -341 -319 -409 -467 -88 -190 -88 -435 0 -611 178 -354 591 -527 1164
-487 343 24 518 77 740 225 187 124 334 309 406 511 48 135 64 239 64 426 l0
160 -32 -6 c-79 -15 -197 -18 -248 -7 -30 6 -128 46 -219 87 -285 130 -372
156 -531 156 -121 -1 -194 -17 -295 -67 -84 -41 -163 -105 -227 -182 -74 -89
-107 -160 -133 -288 -27 -127 -46 -172 -78 -184 -33 -12 -44 -4 -63 45 -21 54
-14 127 20 225 31 89 92 178 221 324 271 306 352 458 343 649 -3 78 -9 100
-38 159 -76 154 -229 271 -390 296 -73 12 -84 12 -154 0z"/>
</g>
</svg>
